<svg xmlns="http://www.w3.org/2000/svg" xmlns:xlink="http://www.w3.org/1999/xlink" version="1.1" id="Layer_1" x="0px" y="0px" width="100%" viewBox="0 0 2000 652" enable-background="new 0 0 2000 652" xml:space="preserve">

<path fill="#E4ECF6" opacity="1.000000" stroke="none" d=" M786.996460,408.004456   C782.162659,400.598633 777.365417,393.562469 771.743469,385.316742   C772.334534,393.259918 772.771545,399.983856 773.359985,406.694550   C773.672546,410.259613 774.498779,413.790558 774.656921,417.356232   C775.126160,427.940491 777.734741,438.543030 774.424255,449.115753   C769.741089,464.072144 759.007996,473.151367 745.120056,478.929626   C728.313904,485.922028 710.485168,485.689636 692.838684,484.832550   C677.020630,484.064301 661.869751,479.901306 649.050110,469.968292   C638.077148,461.466156 631.437988,450.334991 629.943054,436.255127   C628.913330,426.557129 627.294678,416.923096 626.087585,407.241974   C625.258911,400.595886 624.771606,393.907684 623.976868,387.256805   C622.740784,376.911621 621.317261,366.588837 620.080994,356.243683   C619.286255,349.593292 618.770874,342.909485 617.976990,336.258972   C616.742554,325.917114 615.315247,315.598236 614.090149,305.255341   C613.282898,298.440033 612.788330,291.587555 611.973267,284.773315   C610.755981,274.596191 609.312683,264.446136 608.094910,254.269058   C607.279602,247.455322 606.787476,240.602921 605.973938,233.788925   C604.758667,223.610657 603.323059,213.458694 602.105896,203.280624   C601.291138,196.467117 600.787720,189.616394 599.974976,182.802612   C598.760803,172.623077 597.358948,162.466064 596.110962,152.290390   C595.335754,145.969025 594.740540,139.625748 593.987610,133.301453   C592.697632,122.466133 591.087036,111.662155 590.079285,100.801575   C588.225220,80.820038 593.841248,64.688110 614.081848,53.491489   C624.681458,47.628048 636.266296,44.853462 648.333740,43.978344   C656.178650,43.409435 664.037354,41.886284 671.843140,42.154087   C689.803528,42.770283 706.402954,47.924881 719.375183,61.034931   C727.485535,69.231476 732.443115,79.461784 733.937683,90.989594   C735.552429,103.444206 736.627197,115.968063 738.018066,128.452728   C738.988525,137.163605 740.094543,145.859390 741.218140,155.212677   C747.621094,143.638885 753.794800,132.597168 759.856140,121.494087   C767.953857,106.660942 775.290466,91.361885 784.187866,77.028938   C794.612854,60.235317 810.198792,50.335358 830.123230,48.007946   C852.326111,45.414379 873.390747,49.992950 893.408569,59.237686   C905.346375,64.750870 913.555664,74.460152 915.761658,87.486458   C917.819641,99.638748 915.011230,111.615952 908.306213,122.079086   C889.880920,150.831680 871.151550,179.389709 852.488831,207.989792   C843.513367,221.744400 834.400330,235.409180 825.393372,249.143372   C823.971313,251.311752 823.659912,253.005356 825.854004,255.561783   C834.218811,265.308044 842.025635,275.530792 850.149719,285.486725   C859.738892,297.238129 869.470337,308.873260 879.085144,320.603821   C888.070435,331.566315 896.996338,342.577637 905.924866,353.586487   C912.689087,361.926880 919.444702,370.274597 926.152771,378.660095   C934.617737,389.241974 943.862854,399.259338 948.235535,412.585144   C952.486572,425.540131 951.721619,437.382446 942.038513,447.758942   C935.617249,454.639984 927.548767,458.606659 918.575745,461.000763   C902.495728,465.291199 885.997559,466.117828 869.640503,464.796906   C844.560974,462.771667 822.412109,453.254852 805.604980,433.901550   C798.730835,425.985992 793.183838,416.917877 786.996460,408.004456  M926.377563,440.968903   C935.694458,433.498749 937.697998,427.091003 933.075134,416.062286   C930.853333,410.761658 927.887939,405.554993 924.292603,401.082855   C899.459351,370.193298 874.366394,339.512573 849.366577,308.756836   C834.459961,290.418152 819.570923,272.065186 804.515198,253.522995   C805.558105,251.866043 806.498657,250.324844 807.484131,248.812866   C835.456909,205.893723 863.466614,162.998535 891.360596,120.028252   C894.149536,115.731880 896.725830,111.169197 898.560791,106.406487   C903.526306,93.518898 901.001526,83.326859 891.140076,76.094139   C887.702820,73.573151 883.830078,71.243088 879.794250,70.023491   C870.908569,67.338280 861.894043,64.792854 852.750916,63.300846   C827.290527,59.146179 805.924255,67.533089 792.954956,92.411903   C780.203613,116.872566 766.707275,140.945007 753.528259,165.182556   C746.244995,178.577194 738.941833,191.960999 731.258179,206.064560   C730.818176,203.981247 730.439697,202.748642 730.309265,201.490326   C726.859009,168.202393 723.217957,134.932190 720.079407,101.614700   C717.895264,78.428154 706.628357,63.722816 685.125854,59.541496   C665.336853,55.693382 645.535461,57.372272 626.612061,64.421143   C611.233398,70.149605 603.642029,81.735329 605.145569,95.565361   C607.070435,113.271370 609.339844,130.939758 611.432190,148.627747   C615.304260,181.359634 619.164368,214.092896 623.012634,246.827545   C626.491699,276.421570 629.937317,306.019501 633.417908,335.613312   C637.267944,368.348358 641.207581,401.072998 644.965393,433.818604   C646.180847,444.410065 651.034790,452.698975 659.687744,458.737518   C669.670715,465.704132 680.969666,468.650146 693.006775,469.281952   C708.516052,470.096039 724.002197,470.632233 738.865967,464.940308   C754.698853,458.877289 762.061462,447.411377 760.529785,431.934143   C757.055725,396.829559 753.679321,361.715271 750.127441,325.209229   C751.854858,327.613190 752.916443,328.998566 753.882019,330.447968   C771.868469,357.447998 789.538147,384.667053 808.000854,411.337158   C813.785706,419.693634 820.841919,427.671051 828.810913,433.914032   C847.506592,448.560394 869.724976,451.399780 892.707336,449.523865   C904.114441,448.592773 915.670410,447.802917 926.377563,440.968903  z"/>
<path fill="#E4ECF5" opacity="1.000000" stroke="none" d=" M1760.257324,499.690399   C1770.549561,503.166473 1778.371826,509.483917 1786.144897,516.369263   C1796.824829,525.829468 1808.046509,534.794128 1819.759033,542.930420   C1827.234863,548.123596 1830.265137,547.057800 1833.823608,538.745361   C1837.649048,529.808777 1840.915161,520.411255 1842.724487,510.891510   C1844.793091,500.007446 1844.996216,488.768005 1845.980225,477.680328   C1846.051392,476.877441 1845.880737,476.053131 1845.799438,474.912354   C1840.185303,476.397095 1834.715088,477.590668 1829.407959,479.293213   C1811.125732,485.158569 1792.247803,485.964294 1773.413818,484.823669   C1749.919922,483.400818 1727.001221,478.245911 1705.774536,467.831757   C1683.183228,456.748138 1664.604980,441.032135 1651.802856,418.713104   C1642.938110,403.258636 1637.791138,386.919647 1636.042358,369.386749   C1635.114136,360.079132 1633.780151,350.686646 1634.171753,341.397461   C1635.143555,318.343079 1638.500488,295.670166 1648.181885,274.338226   C1654.567383,260.268494 1662.853882,247.523392 1672.733154,235.649643   C1687.776978,217.568253 1706.072876,203.706360 1726.374634,192.118973   C1745.059814,181.454239 1764.812866,173.588730 1785.721436,168.805374   C1796.587524,166.319534 1807.663086,164.660904 1818.708252,163.077103   C1826.320312,161.985565 1834.106445,160.701004 1841.702271,161.203522   C1856.160400,162.160004 1870.899048,162.896988 1884.849121,166.400711   C1899.209595,170.007568 1912.963867,176.297043 1925.456055,184.850327   C1935.980835,192.056671 1945.769165,200.041870 1951.682007,211.470383   C1954.479248,216.876831 1955.571655,223.251434 1956.922852,229.302109   C1959.806763,242.217682 1962.324585,255.214554 1965.049561,268.166138   C1968.335815,283.785919 1971.997314,299.334564 1974.914185,315.022278   C1977.966309,331.437103 1980.530396,347.951202 1982.914429,364.478638   C1984.335327,374.329712 1985.189941,384.275299 1985.953003,394.205017   C1986.835449,405.686951 1987.595581,417.190308 1987.945557,428.698425   C1988.500366,446.944397 1988.967529,465.203339 1988.889893,483.454315   C1988.844482,494.123779 1988.146240,504.844238 1986.904907,515.443787   C1984.176758,538.739685 1979.909790,561.754517 1968.956299,582.837646   C1960.096191,599.891479 1946.872925,612.722046 1930.002563,622.098145   C1915.483154,630.167480 1899.990601,634.645447 1883.629150,635.898682   C1868.330566,637.070557 1852.924805,638.342224 1837.633911,637.768555   C1814.226562,636.890198 1790.750977,634.644958 1768.248413,627.774658   C1753.574463,623.294495 1739.429443,616.970947 1725.265015,610.960388   C1704.157593,602.003845 1686.298706,588.306763 1670.417114,571.922180   C1661.892944,563.128174 1656.879150,552.606934 1656.109985,540.409302   C1655.718872,534.206116 1655.361694,527.605408 1657.002686,521.748596   C1660.865356,507.963135 1671.709106,500.858337 1684.737061,497.078949   C1697.743774,493.305634 1711.269653,492.381927 1724.662842,493.201660   C1736.561157,493.929962 1748.648560,494.777832 1760.257324,499.690399  M1776.152832,528.356323   C1768.067871,519.079407 1757.734009,512.964355 1745.828857,511.413666   C1732.035645,509.617065 1717.965332,509.263885 1704.035278,509.493835   C1697.090698,509.608429 1689.911011,511.686890 1683.338135,514.190613   C1674.197144,517.672424 1670.325439,525.007507 1670.659302,534.677185   C1671.107544,547.657043 1677.205811,557.577393 1686.428101,566.333740   C1708.527100,587.316650 1735.025269,600.342102 1763.465088,610.036621   C1792.190063,619.828308 1822.000366,622.340820 1852.040039,622.725464   C1869.881836,622.953918 1887.642334,621.587097 1904.833862,616.097839   C1931.703003,607.518616 1950.470947,590.511841 1960.517822,563.845581   C1969.094360,541.081604 1971.610840,517.368835 1972.922241,493.384247   C1976.659180,425.036163 1968.575562,357.764801 1954.463013,291.049316   C1950.196899,270.881775 1945.414917,250.815018 1941.609497,230.563004   C1940.337402,223.792725 1939.087402,217.263901 1933.936768,212.686111   C1926.400635,205.988342 1918.884521,198.931992 1910.294922,193.816772   C1881.043213,176.397232 1848.794678,174.098206 1816.032593,178.406555   C1773.959229,183.939331 1735.686768,199.343185 1703.030884,226.947861   C1683.830322,243.178375 1668.932007,262.883087 1659.872559,286.563568   C1650.031250,312.287720 1648.042114,338.946930 1650.903931,366.155273   C1654.418213,399.567047 1669.085693,426.864136 1697.533447,444.911804   C1738.228271,470.729065 1782.582886,475.679932 1828.902222,463.471283   C1839.419434,460.699188 1849.580322,456.574371 1860.243652,452.957397   C1860.398315,453.911224 1860.640991,454.840210 1860.687744,455.778900   C1861.657349,475.297180 1861.241211,494.756409 1857.659912,514.027039   C1855.252319,526.981628 1852.044556,539.732666 1844.792236,550.981201   C1839.996826,558.419067 1833.658936,562.169739 1824.118530,560.499390   C1814.868408,558.879883 1807.207031,554.803955 1800.241943,548.933350   C1792.347656,542.279297 1784.522217,535.543396 1776.152832,528.356323  z"/>
<path fill="#E4ECF5" opacity="1.000000" stroke="none" d=" M1472.288330,301.237793   C1467.913330,307.274994 1463.213745,312.754639 1459.956665,318.988037   C1458.300171,322.158325 1458.870728,326.705292 1459.087402,330.593567   C1459.450806,337.116302 1460.499390,343.598419 1460.958252,350.118835   C1461.479248,357.526062 1461.598877,364.960541 1462.017700,372.376129   C1462.973267,389.295502 1463.531494,406.254974 1465.111450,423.117523   C1467.816528,451.990295 1450.732178,473.854034 1423.771118,481.950470   C1409.149658,486.341309 1393.987915,485.657257 1379.098022,484.764587   C1364.203125,483.871552 1349.976562,479.684784 1337.861816,470.053406   C1327.832886,462.080231 1321.685303,451.829651 1320.119873,439.284149   C1318.558350,426.769806 1318.034790,414.127563 1316.986206,401.547211   C1315.693481,386.039032 1314.323486,370.537292 1312.995605,355.032013   C1311.988892,343.277405 1310.960205,331.524567 1310.004883,319.765717   C1308.637573,302.934082 1307.344482,286.096405 1305.989502,269.263763   C1305.016724,257.179352 1304.528320,245.023605 1302.836914,233.038971   C1301.286255,222.050858 1302.457275,211.870972 1306.613647,201.582397   C1310.842407,191.114670 1318.277832,184.002716 1327.315430,177.928452   C1338.131714,170.658676 1350.280396,168.454575 1362.933960,166.816666   C1379.515137,164.670349 1395.759888,165.923447 1411.247192,171.367065   C1422.373779,175.277924 1432.547485,181.837173 1438.472046,193.123550   C1455.350098,185.110657 1472.492432,178.377304 1490.674438,174.752533   C1498.616089,173.169312 1506.653931,171.919449 1514.706909,171.087372   C1522.081421,170.325394 1529.567749,169.719757 1536.947510,170.115707   C1556.073120,171.141861 1573.030029,177.666428 1587.423096,190.781342   C1598.116089,200.524612 1606.520630,211.819992 1612.350830,224.925140   C1618.445679,238.624786 1622.739380,252.912994 1625.062622,267.806580   C1627.675659,284.558838 1629.173950,301.351013 1629.072021,318.319031   C1629.018555,327.234680 1629.744019,336.152496 1629.989502,345.072906   C1630.695801,370.740204 1632.012695,396.416168 1631.752563,422.075195   C1631.593872,437.725403 1629.315674,453.352356 1619.154297,466.612274   C1612.798462,474.906372 1604.228516,479.191345 1594.657471,481.945740   C1581.500977,485.731995 1567.907349,485.616699 1554.473511,484.837555   C1540.264893,484.013519 1526.693848,480.103088 1515.839111,470.234314   C1508.863770,463.892639 1505.011230,455.555328 1502.955078,446.314270   C1500.241089,434.118164 1501.385864,422.000732 1502.919800,409.821442   C1503.555176,404.776184 1503.873169,399.666901 1503.958130,394.580475   C1504.374023,369.667572 1505.364380,344.733948 1504.703613,319.846069   C1504.367432,307.177002 1500.991455,294.587219 1498.941284,281.969391   C1498.846436,281.385712 1498.280396,280.878540 1497.762573,280.067566   C1486.679077,283.917816 1479.377930,292.158173 1472.288330,301.237793  M1553.584229,469.124634   C1564.687866,468.717224 1575.949463,469.332031 1586.855225,467.645233   C1600.676392,465.507568 1610.887207,457.704132 1613.393799,442.950836   C1615.059937,433.143372 1617.021606,423.135193 1616.707275,413.285248   C1615.294800,369.016174 1613.588745,324.743958 1611.012817,280.529724   C1609.722778,258.387573 1603.309448,237.256775 1591.018677,218.495529   C1582.106812,204.892059 1570.621094,194.140762 1554.496948,189.093079   C1535.866943,183.260910 1516.982300,184.745102 1498.630737,188.586853   C1476.677734,193.182587 1455.560547,201.065826 1435.633179,211.706146   C1434.106567,212.521332 1432.382568,212.966721 1430.399048,213.716812   C1426.327637,195.248077 1413.930786,186.130127 1396.951538,183.085999   C1379.235474,179.909805 1361.318481,180.278900 1344.171143,186.253891   C1327.517944,192.056656 1316.408936,207.829529 1317.463379,223.418854   C1318.980347,245.846680 1321.043701,268.237579 1322.876587,290.644012   C1324.953491,316.035614 1327.007446,341.429138 1329.120605,366.817719   C1330.943848,388.724365 1333.151001,410.604309 1334.607544,432.534668   C1336.011108,453.669708 1353.289917,464.415009 1369.846069,467.776398   C1384.973389,470.847717 1400.301514,470.945465 1415.529053,467.968689   C1429.803467,465.178284 1440.438477,457.553589 1446.756226,444.203705   C1451.573730,434.024353 1450.161743,423.310455 1449.483765,412.730194   C1447.502563,381.813293 1445.236084,350.914734 1443.216797,320.000122   C1443.096802,318.163544 1443.709595,315.929474 1444.759399,314.422394   C1451.973389,304.066284 1458.873535,293.421783 1466.917480,283.736145   C1473.140625,276.243134 1480.505005,269.463989 1490.350708,266.550842   C1503.456909,262.672913 1509.429810,265.438995 1513.715698,278.325531   C1515.903198,284.902710 1517.371582,291.844604 1518.168579,298.736847   C1521.490356,327.461365 1520.645752,356.288086 1519.471924,385.094971   C1518.780396,402.062378 1517.156616,419.016510 1517.132080,435.978333   C1517.113159,449.049377 1523.155762,459.509827 1535.920532,464.554169   C1541.266357,466.666626 1547.106201,467.528870 1553.584229,469.124634  z"/>
<path fill="#E4EDF7" opacity="1.000000" stroke="none" d=" M19.737206,360.386597   C17.677198,345.641632 15.711193,331.284821 14.058146,316.892059   C13.363816,310.846619 12.860578,304.707611 13.085773,298.641418   C13.788843,279.702484 15.760056,260.952515 19.712271,242.308167   C25.101797,216.883408 33.664642,192.663696 46.231766,170.112183   C54.691330,154.931610 64.562057,140.363281 75.252357,126.652298   C84.668098,114.576004 95.485863,103.403313 106.787308,93.033478   C121.846565,79.215591 138.643875,67.596809 156.621567,57.629021   C174.732651,47.587280 193.522720,39.286125 213.491440,34.029106   C227.513443,30.337635 241.799759,27.450256 256.120789,25.158205   C267.416565,23.350342 278.942719,22.218746 290.371094,22.181543   C307.388306,22.126150 324.303253,23.858438 341.161255,26.811031   C364.803101,30.951777 387.370270,38.072109 409.138763,48.004669   C430.989075,57.974533 451.006897,70.742165 469.630737,85.956009   C491.810760,104.074852 510.689972,125.114738 526.294373,148.953735   C544.588501,176.901962 557.471619,207.386185 564.823303,239.992371   C567.424011,251.527161 568.566284,263.417084 569.927917,275.196472   C570.982605,284.320221 572.040283,293.540100 571.833252,302.688629   C571.577881,313.972137 570.035034,325.227966 569.009216,336.492188   C567.137329,357.045135 561.898682,376.822266 554.994507,396.185669   C548.386658,414.717987 539.781616,432.307068 529.450745,449.052429   C516.030945,470.804596 499.697479,490.194824 480.927643,507.439606   C467.035522,520.203064 451.907867,531.399963 435.645844,541.126343   C415.372253,553.252075 394.011597,562.844849 371.308502,569.086609   C357.481506,572.888123 343.315216,575.814209 329.114655,577.796631   C315.160950,579.744568 300.947144,581.057983 286.891174,580.736816   C269.003265,580.328003 251.175201,578.251831 233.553970,574.368225   C208.887833,568.931824 185.363159,560.535767 163.018494,548.927856   C146.494186,540.343567 130.655197,530.521240 116.693283,518.090515   C105.584015,508.199493 94.395309,498.295776 84.235092,487.465881   C70.668472,473.005035 59.588352,456.588165 49.675770,439.361786   C40.163456,422.830933 32.649136,405.464539 26.865620,387.361481   C24.081898,378.648102 22.230968,369.636688 19.737206,360.386597  M238.063080,38.489643   C178.212860,51.324203 127.742882,80.438049 88.296463,127.246277   C35.151417,190.309723 14.728129,263.400391 27.490492,344.703796   C38.094261,412.255768 70.838287,468.190063 124.431969,510.801056   C188.191940,561.495117 261.056641,579.702087 341.154083,565.466797   C402.247375,554.608948 453.868896,525.300781 494.388733,478.139557   C550.035767,413.371735 571.009705,338.139709 556.542053,254.076538   C545.290405,188.699600 512.909668,134.734695 461.328094,92.897034   C412.954254,53.661186 357.220215,34.038616 294.933533,32.978588   C276.042236,32.657085 257.405304,34.819462 238.063080,38.489643  z"/>
<path fill="#E4ECF5" opacity="1.000000" stroke="none" d=" M1299.003174,425.875946   C1297.739380,437.721313 1297.853271,449.389221 1291.729492,459.681671   C1286.741577,468.064911 1279.435059,473.638428 1270.377563,476.999329   C1256.408813,482.182709 1241.903442,484.478607 1227.063721,485.028381   C1222.304443,485.204742 1217.559937,485.866364 1212.801514,485.963074   C1203.291504,486.156372 1194.207886,484.287537 1185.086914,481.346863   C1180.607544,479.902679 1175.063354,481.532501 1170.033936,482.075531   C1162.265503,482.914368 1154.543335,484.645660 1146.769287,484.867126   C1132.305054,485.279205 1117.924438,484.953125 1103.493042,482.228638   C1080.221191,477.835052 1057.875732,470.997803 1036.839600,460.263702   C1018.183594,450.744049 1000.747375,439.256653 986.869934,423.276001   C970.318420,404.216064 958.034302,382.815033 954.083801,357.498077   C952.200073,345.425598 950.189087,333.189972 950.245422,321.037598   C950.348022,298.906738 952.250000,276.620148 961.289368,256.150177   C966.892212,243.462433 974.460388,231.396744 982.661560,220.157425   C996.409729,201.316269 1015.789001,189.102280 1036.544189,179.246384   C1050.383789,172.674484 1065.155884,168.494385 1080.270996,166.113876   C1092.508057,164.186615 1104.926147,162.110123 1117.241943,162.237640   C1147.449829,162.550446 1177.171875,167.005737 1204.594971,180.452011   C1218.983154,187.506927 1232.354492,196.625427 1246.262939,204.677567   C1248.968262,206.243744 1251.927490,207.658875 1254.950562,208.337601   C1267.294922,211.109039 1277.593140,225.664108 1279.122559,237.987076   C1280.958130,252.775635 1283.821533,267.433533 1285.942017,282.190796   C1287.539307,293.306427 1288.609497,304.496826 1290.020142,315.640503   C1291.613281,328.224609 1293.477661,340.776093 1294.931396,353.375519   C1295.889404,361.679382 1296.527588,370.032623 1296.961304,378.381805   C1297.775024,394.044830 1298.336670,409.720886 1299.003174,425.875946  M984.552368,244.085815   C981.280212,250.782639 977.413696,257.260162 974.846924,264.217224   C967.010132,285.458557 965.115662,307.607605 965.995056,330.076019   C967.437927,366.941956 980.516235,398.995819 1008.810547,422.915527   C1045.954834,454.316956 1089.869141,469.344696 1138.401489,469.648682   C1153.849731,469.745422 1169.793091,469.865234 1184.157349,462.164246   C1189.990723,467.884277 1195.253174,469.925140 1204.906250,470.123993   C1222.259033,470.481415 1239.493530,469.716064 1256.540649,465.907745   C1269.173706,463.085571 1280.025513,453.762604 1281.722656,442.540070   C1282.964478,434.327881 1284.153687,425.935486 1283.805664,417.689301   C1282.956177,397.576477 1282.012817,377.405212 1279.636230,357.432526   C1274.976807,318.278534 1269.512329,279.215363 1263.876953,240.187408   C1262.928833,233.621094 1260.261353,226.104523 1252.815796,224.233368   C1242.889404,221.738724 1235.292725,215.758331 1227.191162,210.301071   C1200.616333,192.400146 1171.349365,181.834167 1139.466675,178.724747   C1122.175903,177.038422 1104.786255,176.570526 1087.761841,180.481857   C1073.233521,183.819733 1058.413208,186.970215 1044.718750,192.619720   C1019.572754,202.993469 999.116760,219.761917 984.552368,244.085815  z"/>
<path fill="#0C1C2C" opacity="1.000000" stroke="none" d=" M926.080200,441.181976   C915.670410,447.802917 904.114441,448.592773 892.707336,449.523865   C869.724976,451.399780 847.506592,448.560394 828.810913,433.914032   C820.841919,427.671051 813.785706,419.693634 808.000854,411.337158   C789.538147,384.667053 771.868469,357.447998 753.882019,330.447968   C752.916443,328.998566 751.854858,327.613190 750.127441,325.209229   C753.679321,361.715271 757.055725,396.829559 760.529785,431.934143   C762.061462,447.411377 754.698853,458.877289 738.865967,464.940308   C724.002197,470.632233 708.516052,470.096039 693.006775,469.281952   C680.969666,468.650146 669.670715,465.704132 659.687744,458.737518   C651.034790,452.698975 646.180847,444.410065 644.965393,433.818604   C641.207581,401.072998 637.267944,368.348358 633.417908,335.613312   C629.937317,306.019501 626.491699,276.421570 623.012634,246.827545   C619.164368,214.092896 615.304260,181.359634 611.432190,148.627747   C609.339844,130.939758 607.070435,113.271370 605.145569,95.565361   C603.642029,81.735329 611.233398,70.149605 626.612061,64.421143   C645.535461,57.372272 665.336853,55.693382 685.125854,59.541496   C706.628357,63.722816 717.895264,78.428154 720.079407,101.614700   C723.217957,134.932190 726.859009,168.202393 730.309265,201.490326   C730.439697,202.748642 730.818176,203.981247 731.258179,206.064560   C738.941833,191.960999 746.244995,178.577194 753.528259,165.182556   C766.707275,140.945007 780.203613,116.872566 792.954956,92.411903   C805.924255,67.533089 827.290527,59.146179 852.750916,63.300846   C861.894043,64.792854 870.908569,67.338280 879.794250,70.023491   C883.830078,71.243088 887.702820,73.573151 891.140076,76.094139   C901.001526,83.326859 903.526306,93.518898 898.560791,106.406487   C896.725830,111.169197 894.149536,115.731880 891.360596,120.028252   C863.466614,162.998535 835.456909,205.893723 807.484131,248.812866   C806.498657,250.324844 805.558105,251.866043 804.515198,253.522995   C819.570923,272.065186 834.459961,290.418152 849.366577,308.756836   C874.366394,339.512573 899.459351,370.193298 924.292603,401.082855   C927.887939,405.554993 930.853333,410.761658 933.075134,416.062286   C937.697998,427.091003 935.694458,433.498749 926.080200,441.181976  z"/>
<path fill="#0C1C2C" opacity="1.000000" stroke="none" d=" M1776.409790,528.599731   C1784.522217,535.543396 1792.347656,542.279297 1800.241943,548.933350   C1807.207031,554.803955 1814.868408,558.879883 1824.118530,560.499390   C1833.658936,562.169739 1839.996826,558.419067 1844.792236,550.981201   C1852.044556,539.732666 1855.252319,526.981628 1857.659912,514.027039   C1861.241211,494.756409 1861.657349,475.297180 1860.687744,455.778900   C1860.640991,454.840210 1860.398315,453.911224 1860.243652,452.957397   C1849.580322,456.574371 1839.419434,460.699188 1828.902222,463.471283   C1782.582886,475.679932 1738.228271,470.729065 1697.533447,444.911804   C1669.085693,426.864136 1654.418213,399.567047 1650.903931,366.155273   C1648.042114,338.946930 1650.031250,312.287720 1659.872559,286.563568   C1668.932007,262.883087 1683.830322,243.178375 1703.030884,226.947861   C1735.686768,199.343185 1773.959229,183.939331 1816.032593,178.406555   C1848.794678,174.098206 1881.043213,176.397232 1910.294922,193.816772   C1918.884521,198.931992 1926.400635,205.988342 1933.936768,212.686111   C1939.087402,217.263901 1940.337402,223.792725 1941.609497,230.563004   C1945.414917,250.815018 1950.196899,270.881775 1954.463013,291.049316   C1968.575562,357.764801 1976.659180,425.036163 1972.922241,493.384247   C1971.610840,517.368835 1969.094360,541.081604 1960.517822,563.845581   C1950.470947,590.511841 1931.703003,607.518616 1904.833862,616.097839   C1887.642334,621.587097 1869.881836,622.953918 1852.040039,622.725464   C1822.000366,622.340820 1792.190063,619.828308 1763.465088,610.036621   C1735.025269,600.342102 1708.527100,587.316650 1686.428101,566.333740   C1677.205811,557.577393 1671.107544,547.657043 1670.659302,534.677185   C1670.325439,525.007507 1674.197144,517.672424 1683.338135,514.190613   C1689.911011,511.686890 1697.090698,509.608429 1704.035278,509.493835   C1717.965332,509.263885 1732.035645,509.617065 1745.828857,511.413666   C1757.734009,512.964355 1768.067871,519.079407 1776.409790,528.599731  M1849.250610,229.871140   C1846.310547,229.532806 1843.315063,228.653076 1840.439941,228.947769   C1826.345825,230.392273 1814.329956,236.562653 1804.288818,246.352890   C1783.020630,267.089905 1770.719360,292.798309 1764.121460,321.358673   C1759.933594,339.487000 1758.066040,357.877411 1763.052856,376.213501   C1766.556274,389.095520 1772.265625,400.576843 1785.645386,406.063568   C1804.117676,413.638641 1833.617065,411.967010 1847.697266,382.911591   C1856.335449,365.086090 1858.873047,346.143066 1859.964844,326.815002   C1861.686035,296.347778 1856.714600,266.367584 1852.923340,236.316910   C1852.656006,234.197784 1851.000244,232.253799 1849.250610,229.871140  z"/>
<path fill="#0C1C2C" opacity="1.000000" stroke="none" d=" M1553.152832,469.042084   C1547.106201,467.528870 1541.266357,466.666626 1535.920532,464.554169   C1523.155762,459.509827 1517.113159,449.049377 1517.132080,435.978333   C1517.156616,419.016510 1518.780396,402.062378 1519.471924,385.094971   C1520.645752,356.288086 1521.490356,327.461365 1518.168579,298.736847   C1517.371582,291.844604 1515.903198,284.902710 1513.715698,278.325531   C1509.429810,265.438995 1503.456909,262.672913 1490.350708,266.550842   C1480.505005,269.463989 1473.140625,276.243134 1466.917480,283.736145   C1458.873535,293.421783 1451.973389,304.066284 1444.759399,314.422394   C1443.709595,315.929474 1443.096802,318.163544 1443.216797,320.000122   C1445.236084,350.914734 1447.502563,381.813293 1449.483765,412.730194   C1450.161743,423.310455 1451.573730,434.024353 1446.756226,444.203705   C1440.438477,457.553589 1429.803467,465.178284 1415.529053,467.968689   C1400.301514,470.945465 1384.973389,470.847717 1369.846069,467.776398   C1353.289917,464.415009 1336.011108,453.669708 1334.607544,432.534668   C1333.151001,410.604309 1330.943848,388.724365 1329.120605,366.817719   C1327.007446,341.429138 1324.953491,316.035614 1322.876587,290.644012   C1321.043701,268.237579 1318.980347,245.846680 1317.463379,223.418854   C1316.408936,207.829529 1327.517944,192.056656 1344.171143,186.253891   C1361.318481,180.278900 1379.235474,179.909805 1396.951538,183.085999   C1413.930786,186.130127 1426.327637,195.248077 1430.399048,213.716812   C1432.382568,212.966721 1434.106567,212.521332 1435.633179,211.706146   C1455.560547,201.065826 1476.677734,193.182587 1498.630737,188.586853   C1516.982300,184.745102 1535.866943,183.260910 1554.496948,189.093079   C1570.621094,194.140762 1582.106812,204.892059 1591.018677,218.495529   C1603.309448,237.256775 1609.722778,258.387573 1611.012817,280.529724   C1613.588745,324.743958 1615.294800,369.016174 1616.707275,413.285248   C1617.021606,423.135193 1615.059937,433.143372 1613.393799,442.950836   C1610.887207,457.704132 1600.676392,465.507568 1586.855225,467.645233   C1575.949463,469.332031 1564.687866,468.717224 1553.152832,469.042084  z"/>
<path fill="#5DA9DF" opacity="1.000000" stroke="none" d=" M238.470383,38.370823   C257.405304,34.819462 276.042236,32.657085 294.933533,32.978588   C357.220215,34.038616 412.954254,53.661186 461.328094,92.897034   C512.909668,134.734695 545.290405,188.699600 556.542053,254.076538   C571.009705,338.139709 550.035767,413.371735 494.388733,478.139557   C453.868896,525.300781 402.247375,554.608948 341.154083,565.466797   C261.056641,579.702087 188.191940,561.495117 124.431969,510.801056   C70.838287,468.190063 38.094261,412.255768 27.490492,344.703796   C14.728129,263.400391 35.151417,190.309723 88.296463,127.246277   C127.742882,80.438049 178.212860,51.324203 238.470383,38.370823  M135.839981,386.597717   C143.994644,382.935059 147.915085,376.063171 150.210007,367.868378   C152.766113,358.740845 155.574417,349.683044 158.059494,340.536896   C159.243042,336.180908 161.328384,334.411743 166.151566,335.081940   C175.368134,336.362610 184.660858,337.335632 193.952057,337.733032   C198.337219,337.920563 199.873169,339.693298 201.129807,343.507355   C207.167572,361.832764 213.676987,380.003601 219.640106,398.352417   C222.502960,407.161560 228.297150,412.919647 236.556915,416.078430   C248.058609,420.477051 260.351166,420.732117 271.987396,418.135559   C289.993683,414.117584 297.062805,406.641296 288.888794,387.134888   C282.729004,372.435242 278.086853,357.090729 272.961304,341.968140   C252.509476,281.626434 232.150070,221.253418 211.711868,160.907089   C208.152145,150.396561 200.264648,143.797180 190.013550,141.381775   C181.392258,139.350357 172.192993,138.992538 163.276672,139.180176   C150.747162,139.443817 141.503403,146.273346 138.622650,155.964554   C131.468887,180.030701 124.432983,204.132126 117.214188,228.178680   C103.968506,272.301300 90.658424,316.404694 77.299995,360.493286   C73.822029,371.972076 77.424225,380.793640 88.712296,385.064575   C103.865303,390.797760 119.424774,392.193359 135.839981,386.597717  M396.454285,316.193878   C402.820068,307.801361 409.520325,299.702026 418.745056,294.267639   C430.962128,287.070435 438.509827,290.969025 440.125977,304.878387   C442.360138,324.106842 439.617340,343.087616 437.491913,362.089478   C436.179932,373.819183 433.863190,385.455170 432.967346,397.207153   C432.161896,407.772797 437.485962,415.259003 447.648621,417.508270   C455.958954,419.347504 464.698669,420.219879 473.202576,419.970459   C484.408020,419.641785 490.327972,414.181213 492.616089,403.282654   C494.250763,395.496735 495.329193,387.540100 495.938995,379.604553   C497.111938,364.339111 497.996826,349.043243 498.595001,333.744110   C499.303680,315.619324 500.388519,297.407166 494.914642,279.701080   C489.085052,260.844269 478.152649,247.154221 457.357086,244.263443   C444.351715,242.455566 431.433563,243.681320 418.806732,247.211014   C409.728729,249.748627 400.762451,252.685883 391.513611,255.516068   C390.136627,246.551453 385.236694,240.288040 376.858124,236.841263   C366.389374,232.534637 355.438324,232.163010 344.444977,233.512939   C330.303162,235.249481 320.911926,245.927856 321.656830,259.157837   C322.028961,265.766998 321.292694,272.431183 321.268127,279.071259   C321.139984,313.720795 321.408844,348.376007 320.841461,383.017761   C320.596802,397.954315 330.471893,406.317841 341.433716,408.636169   C350.096588,410.468262 359.191711,411.119904 368.062073,410.909851   C382.204865,410.575012 391.635162,400.654785 392.080475,386.643005   C392.609406,369.999420 392.499390,353.328613 393.366211,336.706085   C393.710999,330.094025 391.808228,322.990204 396.454285,316.193878  z"/>
<path fill="#0C1C2C" opacity="1.000000" stroke="none" d=" M984.741089,243.773254   C999.116760,219.761917 1019.572754,202.993469 1044.718750,192.619720   C1058.413208,186.970215 1073.233521,183.819733 1087.761841,180.481857   C1104.786255,176.570526 1122.175903,177.038422 1139.466675,178.724747   C1171.349365,181.834167 1200.616333,192.400146 1227.191162,210.301071   C1235.292725,215.758331 1242.889404,221.738724 1252.815796,224.233368   C1260.261353,226.104523 1262.928833,233.621094 1263.876953,240.187408   C1269.512329,279.215363 1274.976807,318.278534 1279.636230,357.432526   C1282.012817,377.405212 1282.956177,397.576477 1283.805664,417.689301   C1284.153687,425.935486 1282.964478,434.327881 1281.722656,442.540070   C1280.025513,453.762604 1269.173706,463.085571 1256.540649,465.907745   C1239.493530,469.716064 1222.259033,470.481415 1204.906250,470.123993   C1195.253174,469.925140 1189.990723,467.884277 1184.157349,462.164246   C1169.793091,469.865234 1153.849731,469.745422 1138.401489,469.648682   C1089.869141,469.344696 1045.954834,454.316956 1008.810547,422.915527   C980.516235,398.995819 967.437927,366.941956 965.995056,330.076019   C965.115662,307.607605 967.010132,285.458557 974.846924,264.217224   C977.413696,257.260162 981.280212,250.782639 984.741089,243.773254  M1138.560181,413.145691   C1142.735596,410.602356 1147.616821,408.757568 1150.955078,405.385437   C1161.217651,395.018524 1166.580322,381.635010 1171.976685,368.379700   C1172.462524,367.186310 1172.771606,365.776764 1172.665527,364.509125   C1171.667480,352.572388 1170.644287,340.636475 1169.468872,328.716095   C1167.084717,304.540283 1164.419067,280.390106 1162.311157,256.190948   C1161.886597,251.316376 1160.405884,247.676651 1156.274780,245.630951   C1143.514038,239.312057 1130.642944,233.210968 1117.698853,227.277725   C1116.635376,226.790222 1114.041382,227.738876 1113.263428,228.817337   C1102.078125,244.321014 1093.750366,261.288727 1089.092041,279.832428   C1082.765503,305.017395 1081.458008,330.514404 1087.335938,355.947540   C1091.756592,375.075623 1099.953735,392.404541 1115.495850,405.275635   C1121.872437,410.556396 1128.932739,414.555511 1138.560181,413.145691  z"/>
<path fill="#E4ECF5" opacity="1.000000" stroke="none" d=" M1849.620361,230.049744   C1851.000244,232.253799 1852.656006,234.197784 1852.923340,236.316910   C1856.714600,266.367584 1861.686035,296.347778 1859.964844,326.815002   C1858.873047,346.143066 1856.335449,365.086090 1847.697266,382.911591   C1833.617065,411.967010 1804.117676,413.638641 1785.645386,406.063568   C1772.265625,400.576843 1766.556274,389.095520 1763.052856,376.213501   C1758.066040,357.877411 1759.933594,339.487000 1764.121460,321.358673   C1770.719360,292.798309 1783.020630,267.089905 1804.288818,246.352890   C1814.329956,236.562653 1826.345825,230.392273 1840.439941,228.947769   C1843.315063,228.653076 1846.310547,229.532806 1849.620361,230.049744  M1843.958984,285.860535   C1843.645142,285.107178 1843.134644,284.375946 1843.046875,283.597107   C1841.604004,270.801575 1840.214478,258.000031 1838.803955,245.115997   C1838.003296,245.115997 1837.314087,244.964706 1836.719849,245.138184   C1823.013306,249.139557 1812.843140,258.064728 1804.479492,269.115723   C1793.011597,284.268158 1785.031982,301.278809 1780.237793,319.607269   C1775.698975,336.959045 1773.675659,354.640167 1778.076050,372.382019   C1780.649902,382.760132 1785.989502,391.543121 1797.373413,393.569427   C1807.707153,395.408783 1818.520020,395.089935 1825.900879,386.249481   C1830.861328,380.308105 1834.891479,373.227600 1837.834106,366.041077   C1843.566772,352.039642 1844.408447,336.943176 1844.858521,322.023010   C1845.212158,310.302155 1844.327881,298.543884 1843.958984,285.860535  z"/>
<path fill="#FEFFFF" opacity="1.000000" stroke="none" d=" M135.483719,386.743958   C119.424774,392.193359 103.865303,390.797760 88.712296,385.064575   C77.424225,380.793640 73.822029,371.972076 77.299995,360.493286   C90.658424,316.404694 103.968506,272.301300 117.214188,228.178680   C124.432983,204.132126 131.468887,180.030701 138.622650,155.964554   C141.503403,146.273346 150.747162,139.443817 163.276672,139.180176   C172.192993,138.992538 181.392258,139.350357 190.013550,141.381775   C200.264648,143.797180 208.152145,150.396561 211.711868,160.907089   C232.150070,221.253418 252.509476,281.626434 272.961304,341.968140   C278.086853,357.090729 282.729004,372.435242 288.888794,387.134888   C297.062805,406.641296 289.993683,414.117584 271.987396,418.135559   C260.351166,420.732117 248.058609,420.477051 236.556915,416.078430   C228.297150,412.919647 222.502960,407.161560 219.640106,398.352417   C213.676987,380.003601 207.167572,361.832764 201.129807,343.507355   C199.873169,339.693298 198.337219,337.920563 193.952057,337.733032   C184.660858,337.335632 175.368134,336.362610 166.151566,335.081940   C161.328384,334.411743 159.243042,336.180908 158.059494,340.536896   C155.574417,349.683044 152.766113,358.740845 150.210007,367.868378   C147.915085,376.063171 143.994644,382.935059 135.483719,386.743958  M166.504929,284.016022   C165.714172,287.812378 164.923401,291.608704 163.950195,296.280975   C173.334747,296.280975 181.887314,296.280975 191.197662,296.280975   C187.126907,274.494690 183.048141,252.665451 178.969360,230.836197   C178.525726,230.790894 178.082108,230.745575 177.638474,230.700256   C174.000122,248.202454 170.361786,265.704620 166.504929,284.016022  z"/>
<path fill="#FEFFFF" opacity="1.000000" stroke="none" d=" M396.245972,316.517334   C391.808228,322.990204 393.710999,330.094025 393.366211,336.706085   C392.499390,353.328613 392.609406,369.999420 392.080475,386.643005   C391.635162,400.654785 382.204865,410.575012 368.062073,410.909851   C359.191711,411.119904 350.096588,410.468262 341.433716,408.636169   C330.471893,406.317841 320.596802,397.954315 320.841461,383.017761   C321.408844,348.376007 321.139984,313.720795 321.268127,279.071259   C321.292694,272.431183 322.028961,265.766998 321.656830,259.157837   C320.911926,245.927856 330.303162,235.249481 344.444977,233.512939   C355.438324,232.163010 366.389374,232.534637 376.858124,236.841263   C385.236694,240.288040 390.136627,246.551453 391.513611,255.516068   C400.762451,252.685883 409.728729,249.748627 418.806732,247.211014   C431.433563,243.681320 444.351715,242.455566 457.357086,244.263443   C478.152649,247.154221 489.085052,260.844269 494.914642,279.701080   C500.388519,297.407166 499.303680,315.619324 498.595001,333.744110   C497.996826,349.043243 497.111938,364.339111 495.938995,379.604553   C495.329193,387.540100 494.250763,395.496735 492.616089,403.282654   C490.327972,414.181213 484.408020,419.641785 473.202576,419.970459   C464.698669,420.219879 455.958954,419.347504 447.648621,417.508270   C437.485962,415.259003 432.161896,407.772797 432.967346,397.207153   C433.863190,385.455170 436.179932,373.819183 437.491913,362.089478   C439.617340,343.087616 442.360138,324.106842 440.125977,304.878387   C438.509827,290.969025 430.962128,287.070435 418.745056,294.267639   C409.520325,299.702026 402.820068,307.801361 396.245972,316.517334  z"/>
<path fill="#E4ECF5" opacity="1.000000" stroke="none" d=" M1138.166260,413.211121   C1128.932739,414.555511 1121.872437,410.556396 1115.495850,405.275635   C1099.953735,392.404541 1091.756592,375.075623 1087.335938,355.947540   C1081.458008,330.514404 1082.765503,305.017395 1089.092041,279.832428   C1093.750366,261.288727 1102.078125,244.321014 1113.263428,228.817337   C1114.041382,227.738876 1116.635376,226.790222 1117.698853,227.277725   C1130.642944,233.210968 1143.514038,239.312057 1156.274780,245.630951   C1160.405884,247.676651 1161.886597,251.316376 1162.311157,256.190948   C1164.419067,280.390106 1167.084717,304.540283 1169.468872,328.716095   C1170.644287,340.636475 1171.667480,352.572388 1172.665527,364.509125   C1172.771606,365.776764 1172.462524,367.186310 1171.976685,368.379700   C1166.580322,381.635010 1161.217651,395.018524 1150.955078,405.385437   C1147.616821,408.757568 1142.735596,410.602356 1138.166260,413.211121  M1150.996094,301.324860   C1149.987915,288.916290 1149.025146,276.503723 1147.949463,264.101044   C1147.510986,259.046631 1145.115967,255.795563 1139.994019,253.843842   C1133.747803,251.463760 1127.937866,247.938217 1121.820923,244.848282   C1121.027344,245.584045 1120.160522,246.148270 1119.620117,246.936386   C1118.342651,248.799652 1117.118408,250.714767 1116.051025,252.704529   C1105.315308,272.717041 1100.161987,294.268829 1099.081177,316.791138   C1098.396973,331.046326 1099.396484,345.291260 1104.106323,358.888306   C1108.901611,372.732452 1114.888794,385.944458 1127.402588,394.958313   C1133.097290,399.060211 1135.939453,399.096558 1140.445312,394.001831   C1141.730225,392.549042 1143.013550,391.054108 1144.033325,389.414185   C1151.163452,377.947845 1158.992432,367.027466 1156.218750,351.934052   C1154.098633,340.396973 1154.065063,328.482849 1152.958130,316.750153   C1152.500488,311.900696 1151.663452,307.087097 1150.996094,301.324860  z"/>

<path fill="#61ABE0" opacity="1.000000" stroke="none" d=" M166.614182,283.611420   C170.361786,265.704620 174.000122,248.202454 177.638474,230.700256   C178.082108,230.745575 178.525726,230.790894 178.969360,230.836197   C183.048141,252.665451 187.126907,274.494690 191.197662,296.280975   C181.887314,296.280975 173.334747,296.280975 163.950195,296.280975   C164.923401,291.608704 165.714172,287.812378 166.614182,283.611420  z"/>

</svg>